<?xml version="1.0" encoding="UTF-8"?>
<svg width="190px" height="190px" viewBox="0 0 190 190" version="1.1" xmlns="http://www.w3.org/2000/svg" xmlns:xlink="http://www.w3.org/1999/xlink">
    <title>icons/ic_red_outline</title>
    <g id="icons/ic_red_outline" stroke="none" stroke-width="1" fill="none" fill-rule="evenodd">
        <g id="VER_03" transform="translate(1.000000, 13.000000)" fill="#F0425E" fill-rule="nonzero">
            <path d="M3.81280025,163.948492 C2.45105459,163.949366 1.19235286,163.222524 0.511101871,162.041912 C-0.170149118,160.861301 -0.170381844,159.406403 0.510491407,158.225573 L90.6889252,1.90087931 C91.3705937,0.724239006 92.6263607,0 93.9848834,0 C95.3434062,0 96.5991732,0.724239006 97.2808417,1.90087931 L187.459275,158.225573 C188.340163,159.699611 188.128632,161.581328 186.942529,162.822407 C185.756425,164.063487 183.88826,164.357859 182.3788,163.541528 L118.199698,131.009917 L4.84159647,163.79588 C4.50752546,163.894883 4.16118889,163.946258 3.81280025,163.948492 L3.81280025,163.948492 Z M93.991234,11.4390765 L11.8780545,153.876155 L117.57734,123.353924 C118.504849,123.087038 119.498945,123.182485 120.3589,123.620994 L174.427857,151.027414 L93.991234,11.4390765 Z" id="形状"></path>
            <path d="M3.78951723,164 C2.290813,163.991977 0.936037605,163.104418 0.327855892,161.732149 C-0.280325822,160.35988 -0.0289103307,158.757876 0.970261481,157.63878 L86.2844962,63.7090244 L90.0943013,3.58278478 C90.2275608,1.47486232 92.0412968,-0.12572191 94.145394,0.00777984583 C96.2494912,0.141281602 97.8471709,1.95831494 97.7139114,4.06623741 L94.0310999,62.6785069 L141.52667,80.4899194 C142.540154,80.8716341 143.343644,81.6673325 143.736357,82.6781787 C144.131396,83.6859493 144.080617,84.8143816 143.596664,85.7824534 L121.96967,128.682513 C121.311888,129.99078 119.964741,130.80647 118.502748,130.781715 C117.045283,130.7583 115.728907,129.903817 115.112021,128.580733 L88.9513598,72.0803883 L6.60877298,162.7532 C5.88622888,163.548017 4.86260264,164 3.78951723,164 L3.78951723,164 Z M97.3583296,72.0931107 L118.705937,118.199224 L134.834112,86.1005144 L97.3583296,72.0931107 Z" id="形状"></path>
        </g>
    </g>
</svg>